<svg width="32" height="32" viewBox="0 0 32 32" fill="none" xmlns="http://www.w3.org/2000/svg">
<path d="M11.547 25.7519C20.604 25.7519 25.557 18.2489 25.557 11.7419C25.557 11.5289 25.557 11.3169 25.543 11.1059C26.5069 10.4086 27.3389 9.54511 28 8.55594C27.1015 8.9546 26.1482 9.21618 25.172 9.33194C26.1997 8.71624 26.9687 7.74822 27.336 6.60794C26.3697 7.18139 25.3124 7.58553 24.21 7.80294C23.4675 7.01349 22.4856 6.49073 21.4161 6.31555C20.3466 6.14038 19.2492 6.32256 18.2937 6.83391C17.3382 7.34525 16.5779 8.15725 16.1303 9.14426C15.6828 10.1313 15.573 11.2383 15.818 12.2939C13.8604 12.1958 11.9453 11.6872 10.197 10.801C8.44877 9.91477 6.90639 8.67085 5.67 7.14994C5.04049 8.23401 4.84778 9.51723 5.1311 10.7384C5.41442 11.9595 6.15247 13.0268 7.195 13.7229C6.41129 13.6995 5.64472 13.4879 4.96 13.1059V13.1689C4.96031 14.3057 5.3538 15.4075 6.07373 16.2872C6.79367 17.167 7.79573 17.7707 8.91 17.9959C8.18515 18.1934 7.42469 18.2221 6.687 18.0799C7.0016 19.0584 7.61411 19.914 8.43888 20.5272C9.26365 21.1404 10.2594 21.4805 11.287 21.4999C10.266 22.3021 9.09691 22.8952 7.84655 23.2452C6.59619 23.5953 5.28909 23.6954 4 23.5399C6.25155 24.9853 8.87147 25.7521 11.547 25.7489" fill="white"/>
</svg>
